<svg width="37" height="37" viewBox="0 0 37 37" fill="none"
    xmlns="http://www.w3.org/2000/svg">
    <g id="teenyicons:certificate-outline" clip-path="url(#clip0_281_7713)">
        <path id="Vector" d="M23.4333 35.7667H22.2C22.2 35.9957 22.2638 36.2202 22.3842 36.4151C22.5046 36.6099 22.6769 36.7674 22.8818 36.8698C23.0866 36.9722 23.316 37.0156 23.5441 36.995C23.7722 36.9745 23.9901 36.8908 24.1733 36.7533L23.4333 35.7667ZM28.3667 32.0667L29.1067 31.08C28.8932 30.9199 28.6335 30.8333 28.3667 30.8333C28.0998 30.8333 27.8402 30.9199 27.6267 31.08L28.3667 32.0667ZM33.3 35.7667L32.56 36.7533C32.7432 36.8908 32.9611 36.9745 33.1892 36.995C33.4174 37.0156 33.6467 36.9722 33.8516 36.8698C34.0564 36.7674 34.2287 36.6099 34.3491 36.4151C34.4696 36.2202 34.5333 35.9957 34.5333 35.7667H33.3ZM28.3667 27.1333C26.7312 27.1333 25.1627 26.4836 24.0062 25.3272C22.8497 24.1707 22.2 22.6022 22.2 20.9667H19.7333C19.7333 23.2564 20.6429 25.4523 22.262 27.0714C23.881 28.6904 26.077 29.6 28.3667 29.6V27.1333ZM34.5333 20.9667C34.5333 22.6022 33.8836 24.1707 32.7272 25.3272C31.5707 26.4836 30.0022 27.1333 28.3667 27.1333V29.6C30.6564 29.6 32.8523 28.6904 34.4714 27.0714C36.0904 25.4523 37 23.2564 37 20.9667H34.5333ZM28.3667 14.8C30.0022 14.8 31.5707 15.4497 32.7272 16.6062C33.8836 17.7627 34.5333 19.3312 34.5333 20.9667H37C37 18.677 36.0904 16.481 34.4714 14.862C32.8523 13.2429 30.6564 12.3333 28.3667 12.3333V14.8ZM28.3667 12.3333C26.077 12.3333 23.881 13.2429 22.262 14.862C20.6429 16.481 19.7333 18.677 19.7333 20.9667H22.2C22.2 19.3312 22.8497 17.7627 24.0062 16.6062C25.1627 15.4497 26.7312 14.8 28.3667 14.8V12.3333ZM22.2 25.9V35.7667H24.6667V25.9H22.2ZM24.1733 36.7533L29.1067 33.0533L27.6267 31.08L22.6933 34.78L24.1733 36.7533ZM27.6267 33.0533L32.56 36.7533L34.04 34.78L29.1067 31.08L27.6267 33.0533ZM34.5333 35.7667V25.9H32.0667V35.7667H34.5333ZM37 12.3333V3.7H34.5333V12.3333H37ZM33.3 0H3.7V2.46667H33.3V0ZM0 3.7V33.3H2.46667V3.7H0ZM3.7 37H19.7333V34.5333H3.7V37ZM0 33.3C0 34.2813 0.38982 35.2224 1.0837 35.9163C1.77759 36.6102 2.7187 37 3.7 37V34.5333C3.3729 34.5333 3.0592 34.4034 2.8279 34.1721C2.59661 33.9408 2.46667 33.6271 2.46667 33.3H0ZM3.7 0C2.7187 0 1.77759 0.38982 1.0837 1.0837C0.38982 1.77759 0 2.7187 0 3.7H2.46667C2.46667 3.3729 2.59661 3.0592 2.8279 2.8279C3.0592 2.59661 3.3729 2.46667 3.7 2.46667V0ZM37 3.7C37 2.7187 36.6102 1.77759 35.9163 1.0837C35.2224 0.38982 34.2813 0 33.3 0V2.46667C33.6271 2.46667 33.9408 2.59661 34.1721 2.8279C34.4034 3.0592 34.5333 3.3729 34.5333 3.7H37ZM7.4 12.3333H19.7333V9.86667H7.4V12.3333ZM7.4 19.7333H14.8V17.2667H7.4V19.7333Z" fill="#17181C"/>
    </g>
    <defs>
        <clipPath id="clip0_281_7713">
            <rect width="37" height="37" fill="white"/>
        </clipPath>
    </defs>
</svg>
