<svg width="57" height="57" viewBox="0 0 57 57" fill="none" xmlns="http://www.w3.org/2000/svg">
<g clip-path="url(#clip0_33_1346)">
<path d="M36.1 55.1H34.2C34.2 55.4529 34.2983 55.7987 34.4838 56.0989C34.6693 56.399 34.9347 56.6416 35.2503 56.7994C35.5659 56.9572 35.9192 57.024 36.2706 56.9923C36.6221 56.9606 36.9577 56.8317 37.24 56.62L36.1 55.1ZM43.7 49.4L44.84 47.88C44.5111 47.6333 44.1111 47.5 43.7 47.5C43.2889 47.5 42.8889 47.6333 42.56 47.88L43.7 49.4ZM51.3 55.1L50.16 56.62C50.4423 56.8317 50.7779 56.9606 51.1294 56.9923C51.4808 57.024 51.8341 56.9572 52.1497 56.7994C52.4653 56.6416 52.7307 56.399 52.9162 56.0989C53.1017 55.7987 53.2 55.4529 53.2 55.1H51.3ZM43.7 41.8C41.1804 41.8 38.7641 40.7991 36.9825 39.0175C35.2009 37.2359 34.2 34.8196 34.2 32.3H30.4C30.4 35.8274 31.8012 39.2103 34.2955 41.7045C36.7897 44.1988 40.1726 45.6 43.7 45.6V41.8ZM53.2 32.3C53.2 34.8196 52.1991 37.2359 50.4175 39.0175C48.6359 40.7991 46.2196 41.8 43.7 41.8V45.6C47.2274 45.6 50.6103 44.1988 53.1045 41.7045C55.5988 39.2103 57 35.8274 57 32.3H53.2ZM43.7 22.8C46.2196 22.8 48.6359 23.8009 50.4175 25.5825C52.1991 27.3641 53.2 29.7804 53.2 32.3H57C57 28.7726 55.5988 25.3897 53.1045 22.8955C50.6103 20.4012 47.2274 19 43.7 19V22.8ZM43.7 19C40.1726 19 36.7897 20.4012 34.2955 22.8955C31.8012 25.3897 30.4 28.7726 30.4 32.3H34.2C34.2 29.7804 35.2009 27.3641 36.9825 25.5825C38.7641 23.8009 41.1804 22.8 43.7 22.8V19ZM34.2 39.9V55.1H38V39.9H34.2ZM37.24 56.62L44.84 50.92L42.56 47.88L34.96 53.58L37.24 56.62ZM42.56 50.92L50.16 56.62L52.44 53.58L44.84 47.88L42.56 50.92ZM53.2 55.1V39.9H49.4V55.1H53.2ZM57 19V5.7H53.2V19H57ZM51.3 0H5.7V3.8H51.3V0ZM0 5.7V51.3H3.8V5.7H0ZM5.7 57H30.4V53.2H5.7V57ZM0 51.3C0 52.8117 0.600534 54.2616 1.66949 55.3305C2.73845 56.3995 4.18827 57 5.7 57V53.2C5.19609 53.2 4.71282 52.9998 4.3565 52.6435C4.00018 52.2872 3.8 51.8039 3.8 51.3H0ZM5.7 0C4.18827 0 2.73845 0.600534 1.66949 1.66949C0.600534 2.73845 0 4.18827 0 5.7H3.8C3.8 5.19609 4.00018 4.71282 4.3565 4.3565C4.71282 4.00018 5.19609 3.8 5.7 3.8V0ZM57 5.7C57 4.18827 56.3995 2.73845 55.3305 1.66949C54.2616 0.600534 52.8117 0 51.3 0V3.8C51.8039 3.8 52.2872 4.00018 52.6435 4.3565C52.9998 4.71282 53.2 5.19609 53.2 5.7H57ZM11.4 19H30.4V15.2H11.4V19ZM11.4 30.4H22.8V26.6H11.4V30.4Z" fill="#17181C"/>
</g>
<defs>
<clipPath id="clip0_33_1346">
<rect width="57" height="57" fill="white"/>
</clipPath>
</defs>
</svg>
