<svg width="64" height="64" viewBox="0 0 64 64" fill="none" xmlns="http://www.w3.org/2000/svg">
<path d="M47.6 22C47.8 22.1 48 22.2 48.2 22.2C48.3 22.2 48.5 22.2 48.6 22.1C48.9 21.9 49.1 21.6 49.2 21.3L49.3 18.4C51 18 52.3 16.4 52.3 14.5V5C52.3 2.8 50.5 1 48.3 1H32.2C30 1 28.2 2.8 28.2 5V8.9H17.5C15.3 8.9 13.5 10.7 13.5 12.9V22.3C13.5 24.2 14.8 25.8 16.5 26.2L16.6 29.1C16.6 29.5 16.8 29.8 17.2 29.9C17.3 30 17.5 30 17.6 30C17.8 30 18 29.9 18.2 29.8L23.1 26.3H33.5C35.7 26.3 37.4 24.6 37.5 22.4V18.4H42.5L47.6 22ZM35.6 22.4C35.6 23.6 34.7 24.4 33.6 24.4H22.9C22.7 24.4 22.5 24.5 22.3 24.6L18.6 27.2L18.5 25.3C18.5 24.8 18 24.4 17.5 24.4C16.4 24.4 15.5 23.5 15.5 22.4V13C15.5 11.9 16.4 11 17.5 11H28.3V14.6C28.3 16.8 30.1 18.6 32.3 18.6H35.7V22.4H35.6ZM36.6 16.5H32.2C31.1 16.5 30.2 15.6 30.2 14.5V5C30.2 3.9 31.1 3 32.2 3H48.3C49.4 3 50.3 3.9 50.3 5V14.4C50.3 15.5 49.4 16.4 48.3 16.4C47.8 16.4 47.3 16.8 47.3 17.3L47.2 19.2L43.5 16.6C43.3 16.5 43.1 16.4 42.9 16.4H36.6V16.5ZM12.1 46.1C15.9 46.1 18.9 43 18.9 39.3C18.9 35.5 15.8 32.5 12.1 32.5C8.3 32.5 5.3 35.6 5.3 39.3C5.3 43 8.3 46.1 12.1 46.1ZM12.1 34.4C14.8 34.4 16.9 36.6 16.9 39.2C16.9 41.8 14.7 44 12.1 44C9.4 44 7.3 41.8 7.3 39.2C7.3 36.6 9.4 34.4 12.1 34.4ZM16.2 47.4H8.7C4 47.4 0.0999985 51.2 0.0999985 56V62C0.0999985 62.5 0.499998 63 1.1 63H23.7C24.2 63 24.7 62.6 24.7 62V56C24.8 51.2 20.9 47.4 16.2 47.4ZM22.8 61H20.3V56.7C20.3 56.2 19.9 55.7 19.3 55.7C18.8 55.7 18.3 56.1 18.3 56.7V61H6.6V56.7C6.6 56.2 6.2 55.7 5.6 55.7C5.1 55.7 4.6 56.1 4.6 56.7V61H2.1V56C2.1 52.4 5 49.4 8.7 49.4H16.2C19.8 49.4 22.8 52.3 22.8 56V61ZM44.4 29.9C44.4 33.7 47.5 36.7 51.2 36.7C55 36.7 58 33.6 58 29.9C58 26.1 54.9 23.1 51.2 23.1C47.5 23.1 44.4 26.1 44.4 29.9ZM56.1 29.9C56.1 32.6 53.9 34.7 51.3 34.7C48.6 34.7 46.5 32.5 46.5 29.9C46.5 27.3 48.7 25.1 51.3 25.1C53.9 25.1 56.1 27.2 56.1 29.9ZM55.3 38H47.8C43.1 38 39.2 41.8 39.2 46.6V52.6C39.2 53.1 39.6 53.6 40.2 53.6H62.8C63.3 53.6 63.8 53.2 63.8 52.6V46.6C63.9 41.9 60 38 55.3 38ZM61.9 51.6H59.4V47.3C59.4 46.8 59 46.3 58.4 46.3C57.9 46.3 57.4 46.7 57.4 47.3V51.6H45.8V47.3C45.8 46.8 45.4 46.3 44.8 46.3C44.3 46.3 43.8 46.7 43.8 47.3V51.6H41.3V46.6C41.3 43 44.2 40 47.9 40H55.4C59 40 62 42.9 62 46.6V51.6H61.9Z" fill="black"/>
</svg>
