<svg width="49" height="49" viewBox="0 0 49 49" fill="none" xmlns="http://www.w3.org/2000/svg">
<path d="M26.8505 27.5074C26.8505 26.8982 26.6085 26.314 26.1777 25.8832C25.747 25.4525 25.1628 25.2105 24.5536 25.2105C24.0928 25.2101 23.6427 25.3495 23.2628 25.6102C21.6665 24.7004 19.8156 24.3403 17.9947 24.5852C16.1738 24.8301 14.4838 25.6666 13.1847 26.9658C11.8857 28.2651 11.0495 29.9552 10.8048 31.7761C10.5601 33.597 10.9204 35.4479 11.8304 37.044C11.5956 37.389 11.4592 37.7915 11.4359 38.2082C11.4126 38.6249 11.5033 39.04 11.6982 39.4091C11.8931 39.7781 12.1849 40.0871 12.5422 40.3027C12.8995 40.5184 13.3088 40.6327 13.7261 40.6332C14.1843 40.6336 14.632 40.496 15.0108 40.2382C16.6079 41.1465 18.4589 41.5054 20.2797 41.2598C22.1005 41.0141 23.7902 40.1774 25.0893 38.8783C26.3885 37.5791 27.2252 35.8894 27.4708 34.0686C27.7165 32.2478 27.3576 30.3968 26.4493 28.7998C26.7107 28.4195 26.8506 27.9688 26.8505 27.5074ZM14.2682 28.0494C15.2761 27.0459 16.5698 26.3789 17.9718 26.1398C19.3739 25.9007 20.8155 26.1014 22.099 26.7142L20.923 27.8902C19.9722 27.5468 18.9432 27.4813 17.9566 27.7014C16.9699 27.9214 16.0663 28.4179 15.3515 29.1327C14.6366 29.8475 14.1402 30.7511 13.9201 31.7378C13.7001 32.7245 13.7656 33.7534 14.1089 34.7043L12.9329 35.8802C12.3201 34.5968 12.1195 33.1551 12.3585 31.7531C12.5976 30.351 13.2647 29.0573 14.2682 28.0494ZM19.6781 29.1351L15.3538 33.4609C15.2693 32.8733 15.3229 32.2741 15.5103 31.7108C15.6976 31.1475 16.0137 30.6357 16.4334 30.2158C16.8531 29.796 17.3649 29.4797 17.9281 29.2921C18.4913 29.1045 19.0905 29.0508 19.6781 29.1351ZM14.2682 38.8769C14.197 38.948 14.1124 39.0043 14.0194 39.0426C13.9264 39.081 13.8267 39.1006 13.7261 39.1005C13.5746 39.1004 13.4266 39.0555 13.3006 38.9712C13.1747 38.887 13.0766 38.7673 13.0187 38.6273C12.9609 38.4873 12.9458 38.3333 12.9755 38.1847C13.0052 38.0362 13.0783 37.8998 13.1856 37.7928L21.6075 29.3709L24.0054 26.973C24.0766 26.9019 24.1612 26.8456 24.2542 26.8072C24.3472 26.7689 24.4469 26.7492 24.5475 26.7494C24.7501 26.7494 24.9445 26.8298 25.088 26.973C25.2315 27.1165 25.3122 27.3112 25.3122 27.5143C25.3122 27.7173 25.2315 27.912 25.088 28.0556L14.2682 38.8769ZM21.8463 35.6276C21.4274 36.0484 20.9157 36.3653 20.3522 36.5527C19.7887 36.7402 19.1892 36.7931 18.6016 36.7071L22.9259 32.3813C23.0125 32.9693 22.9601 33.5693 22.7729 34.1334C22.5857 34.6974 22.2689 35.2097 21.8479 35.6291L21.8463 35.6276ZM24.0115 37.7943C23.0037 38.7978 21.7099 39.4649 20.3079 39.704C18.9059 39.943 17.4642 39.7424 16.1807 39.1296L17.3736 37.9367C17.9412 38.1539 18.5422 38.271 19.1498 38.2828C20.0061 38.2824 20.8497 38.076 21.6095 37.6812C22.3694 37.2863 23.0231 36.7145 23.5155 36.014C24.0079 35.3134 24.3247 34.5048 24.439 33.6561C24.5533 32.8075 24.4618 31.9438 24.1723 31.138L25.3483 29.962C25.9615 31.2456 26.1623 32.6876 25.9232 34.09C25.6842 35.4923 25.0169 36.7863 24.0131 37.7943H24.0115ZM10.7188 16.0781C10.7188 16.2812 10.7994 16.4759 10.943 16.6195C11.0866 16.7631 11.2813 16.8438 11.4844 16.8438H37.5156C37.7187 16.8438 37.9134 16.7631 38.057 16.6195C38.2006 16.4759 38.2812 16.2812 38.2812 16.0781C38.2812 15.8751 38.2006 15.6803 38.057 15.5367C37.9134 15.3932 37.7187 15.3125 37.5156 15.3125H11.4844C11.2813 15.3125 11.0866 15.3932 10.943 15.5367C10.7994 15.6803 10.7188 15.8751 10.7188 16.0781ZM37.5156 42.875H28.3281C28.1251 42.875 27.9303 42.9557 27.7867 43.0992C27.6432 43.2428 27.5625 43.4376 27.5625 43.6406C27.5625 43.8437 27.6432 44.0384 27.7867 44.182C27.9303 44.3256 28.1251 44.4062 28.3281 44.4062H37.5156C37.7187 44.4062 37.9134 44.3256 38.057 44.182C38.2006 44.0384 38.2812 43.8437 38.2812 43.6406C38.2812 43.4376 38.2006 43.2428 38.057 43.0992C37.9134 42.9557 37.7187 42.875 37.5156 42.875ZM37.5156 24.5H28.3281C28.1251 24.5 27.9303 24.5807 27.7867 24.7242C27.6432 24.8678 27.5625 25.0626 27.5625 25.2656C27.5625 25.4687 27.6432 25.6634 27.7867 25.807C27.9303 25.9506 28.1251 26.0312 28.3281 26.0312H37.5156C37.7187 26.0312 37.9134 25.9506 38.057 25.807C38.2006 25.6634 38.2812 25.4687 38.2812 25.2656C38.2812 25.0626 38.2006 24.8678 38.057 24.7242C37.9134 24.5807 37.7187 24.5 37.5156 24.5ZM42.8551 11.3833C42.851 11.3523 42.8449 11.3216 42.8367 11.2914C42.8068 11.1605 42.7423 11.0399 42.6499 10.9423L31.9312 0.223562C31.8336 0.131215 31.713 0.0667069 31.582 0.03675C31.5518 0.0285927 31.5212 0.0224541 31.4902 0.018375C31.4574 0.0100122 31.4242 0.00387314 31.3906 0L9.95312 0C8.93784 0 7.96414 0.403319 7.24623 1.12123C6.52832 1.83914 6.125 2.81284 6.125 3.82812V45.1719C6.125 46.1872 6.52832 47.1609 7.24623 47.8788C7.96414 48.5967 8.93784 49 9.95312 49H39.0469C40.0622 49 41.0359 48.5967 41.7538 47.8788C42.4717 47.1609 42.875 46.1872 42.875 45.1719V11.4844C42.8707 11.4503 42.864 11.4165 42.8551 11.3833ZM32.1562 2.61384L40.2612 10.7188H34.4531C33.844 10.7188 33.2597 10.4768 32.829 10.046C32.3982 9.61526 32.1562 9.03104 32.1562 8.42188V2.61384ZM31.4105 10.7188H13.0156C12.8126 10.7188 12.6178 10.6381 12.4742 10.4945C12.3307 10.3509 12.25 10.1562 12.25 9.95312V6.89062C12.25 6.68757 12.3307 6.49283 12.4742 6.34925C12.6178 6.20566 12.8126 6.125 13.0156 6.125H30.625V8.42188C30.628 9.2529 30.904 10.0599 31.4105 10.7188ZM41.3438 45.1719C41.3438 45.781 41.1018 46.3653 40.671 46.796C40.2403 47.2268 39.656 47.4688 39.0469 47.4688H9.95312C9.34396 47.4688 8.75974 47.2268 8.32899 46.796C7.89824 46.3653 7.65625 45.781 7.65625 45.1719V3.82812C7.65625 3.21896 7.89824 2.63474 8.32899 2.20399C8.75974 1.77324 9.34396 1.53125 9.95312 1.53125H30.625V4.59375H13.0156C12.4065 4.59375 11.8222 4.83574 11.3915 5.26649C10.9607 5.69724 10.7188 6.28146 10.7188 6.89062V9.95312C10.7188 10.5623 10.9607 11.1465 11.3915 11.5773C11.8222 12.008 12.4065 12.25 13.0156 12.25H41.3438V45.1719ZM37.5156 19.9062H11.4844C11.2813 19.9062 11.0866 19.9869 10.943 20.1305C10.7994 20.2741 10.7188 20.4688 10.7188 20.6719C10.7188 20.8749 10.7994 21.0697 10.943 21.2133C11.0866 21.3568 11.2813 21.4375 11.4844 21.4375H37.5156C37.7187 21.4375 37.9134 21.3568 38.057 21.2133C38.2006 21.0697 38.2812 20.8749 38.2812 20.6719C38.2812 20.4688 38.2006 20.2741 38.057 20.1305C37.9134 19.9869 37.7187 19.9062 37.5156 19.9062ZM37.5156 39.6977C37.3453 39.6959 37.1775 39.6573 37.0236 39.5843C36.8697 39.5113 36.7335 39.4058 36.6244 39.275C36.3772 39.0209 36.0815 38.8189 35.7548 38.681C35.4282 38.5431 35.0772 38.4721 34.7226 38.4721C34.3681 38.4721 34.0171 38.5431 33.6904 38.681C33.3638 38.8189 33.0681 39.0209 32.8208 39.275C32.7131 39.407 32.5774 39.5133 32.4235 39.5863C32.2697 39.6593 32.1015 39.6972 31.9312 39.6972C31.7608 39.6972 31.5927 39.6593 31.4388 39.5863C31.2849 39.5133 31.1492 39.407 31.0415 39.275C30.7948 39.021 30.4997 38.819 30.1735 38.6812C29.8474 38.5434 29.4968 38.4725 29.1427 38.4727C28.9397 38.4727 28.745 38.5533 28.6014 38.6969C28.4578 38.8405 28.3771 39.0352 28.3771 39.2383C28.3771 39.4413 28.4578 39.6361 28.6014 39.7797C28.745 39.9232 28.9397 40.0039 29.1427 40.0039C29.3125 40.0056 29.4798 40.0441 29.6331 40.1168C29.7865 40.1895 29.9222 40.2947 30.0309 40.425C30.2779 40.679 30.5733 40.8809 30.8997 41.0188C31.2261 41.1567 31.5768 41.2277 31.9312 41.2277C32.2855 41.2277 32.6362 41.1567 32.9626 41.0188C33.289 40.8809 33.5844 40.679 33.8314 40.425C33.9394 40.293 34.0754 40.1867 34.2295 40.1136C34.3837 40.0406 34.5521 40.0027 34.7226 40.0027C34.8932 40.0027 35.0616 40.0406 35.2157 40.1136C35.3698 40.1867 35.5058 40.293 35.6138 40.425C35.8611 40.6791 36.1568 40.881 36.4835 41.0188C36.8101 41.1566 37.1611 41.2275 37.5156 41.2274C37.7187 41.2274 37.9134 41.1467 38.057 41.0031C38.2006 40.8595 38.2812 40.6648 38.2812 40.4618C38.2812 40.2587 38.2006 40.064 38.057 39.9204C37.9134 39.7768 37.7187 39.6977 37.5156 39.6977ZM37.5156 29.0938H29.8594C29.6563 29.0938 29.4616 29.1744 29.318 29.318C29.1744 29.4616 29.0938 29.6563 29.0938 29.8594C29.0938 30.0624 29.1744 30.2572 29.318 30.4008C29.4616 30.5443 29.6563 30.625 29.8594 30.625H37.5156C37.7187 30.625 37.9134 30.5443 38.057 30.4008C38.2006 30.2572 38.2812 30.0624 38.2812 29.8594C38.2812 29.6563 38.2006 29.4616 38.057 29.318C37.9134 29.1744 37.7187 29.0938 37.5156 29.0938ZM37.5156 33.6875H29.8594C29.6563 33.6875 29.4616 33.7682 29.318 33.9117C29.1744 34.0553 29.0938 34.2501 29.0938 34.4531C29.0938 34.6562 29.1744 34.8509 29.318 34.9945C29.4616 35.1381 29.6563 35.2188 29.8594 35.2188H37.5156C37.7187 35.2188 37.9134 35.1381 38.057 34.9945C38.2006 34.8509 38.2812 34.6562 38.2812 34.4531C38.2812 34.2501 38.2006 34.0553 38.057 33.9117C37.9134 33.7682 37.7187 33.6875 37.5156 33.6875Z" fill="black"/>
</svg>
